<svg width="1308" height="568" viewBox="0 0 1308 568" fill="none" xmlns="http://www.w3.org/2000/svg">
<path fill-rule="evenodd" clip-rule="evenodd" d="M542 12C542 5.37258 536.627 0 530 0C523.373 0 518 5.37258 518 12V556C518 562.627 523.373 568 530 568C536.627 568 542 562.627 542 556V12ZM37.0005 294.5C37.0005 294.5 -2.08997 564.5 165.001 564.5C242.346 564.5 262.523 502.647 272.5 440.5C277.358 410.242 277.951 379.212 278.435 353.879C278.457 352.741 278.478 351.614 278.5 350.5C279.146 317.3 279 294.5 279 294.5V263.5C279 263.5 277.543 216.573 281.5 167.5C284.413 131.374 288.902 94.0846 306 73.5C314.534 63.2249 327.787 59.5 341.5 59.5C435.515 59.5 408 263.5 408 263.5C408 263.5 426.505 262.201 438 264.5C449.026 266.705 465 274.5 465 274.5C465 274.5 508.5 3 341.5 3C275.329 3 250.505 44.1545 235 94C227.207 119.054 225.918 145.659 224.687 171.075C224.468 175.593 224.251 180.073 224 184.5C221.208 233.669 221.5 274.5 221.5 274.5V303.5C221.5 303.5 222.314 339.341 220.5 381C218.616 424.268 213.722 473.813 192.5 496C185.348 503.477 175.625 507.5 165.001 507.5C64.3993 507.5 93.5 303.5 93.5 303.5C93.5 303.5 75.3725 304.382 64 302.5C53.1504 300.705 37.0005 294.5 37.0005 294.5ZM421.5 429.5C456.018 429.5 484 401.966 484 368C484 334.034 456.018 306.5 421.5 306.5C386.982 306.5 359 334.034 359 368C359 401.966 386.982 429.5 421.5 429.5ZM71 254.5C110.212 254.5 142 222.712 142 183.5C142 144.288 110.212 112.5 71 112.5C31.7876 112.5 0 144.288 0 183.5C0 222.712 31.7876 254.5 71 254.5ZM71 218.5C90.3301 218.5 106 202.83 106 183.5C106 164.17 90.3301 148.5 71 148.5C51.6699 148.5 36 164.17 36 183.5C36 202.83 51.6699 218.5 71 218.5ZM595.975 223V41.1818H660.783C674.87 41.1818 686.559 43.6084 695.851 48.4616C705.202 53.3148 712.186 60.0324 716.802 68.6143C721.419 77.137 723.727 86.9914 723.727 98.1775C723.727 109.304 721.389 119.1 716.714 127.563C712.097 135.968 705.113 142.508 695.762 147.183C694.059 148.04 692.276 148.818 690.412 149.518L730.652 223H699.402L662.462 154.184C661.877 154.193 661.288 154.197 660.695 154.197H623.408V223H595.975ZM658.209 130.582H623.408V64.708H657.854C666.909 64.708 674.218 66.0693 679.782 68.7919C685.405 71.4552 689.518 75.3023 692.122 80.333C694.785 85.3638 696.117 91.312 696.117 98.1775C696.117 104.984 694.815 110.814 692.211 115.667C689.607 120.52 685.493 124.219 679.871 126.764C674.307 129.309 667.087 130.582 658.209 130.582ZM841.359 166.448V86.6363H867.992V223H841.891V199.385H840.471C837.334 206.665 832.303 212.731 825.379 217.584C818.513 222.379 809.961 224.776 799.722 224.776C790.962 224.776 783.209 222.852 776.462 219.005C769.774 215.099 764.506 209.328 760.659 201.693C756.871 194.058 754.977 184.618 754.977 173.373V86.6363H781.522V170.177C781.522 179.469 784.097 186.867 789.246 192.371C794.395 197.876 801.083 200.628 809.31 200.628C814.281 200.628 819.223 199.385 824.136 196.899C829.107 194.413 833.221 190.655 836.476 185.624C839.79 180.593 841.418 174.201 841.359 166.448ZM981.784 124.19L1005.84 119.928C1003.12 109.275 997.527 100.782 989.064 94.4488C980.6 88.0568 969 84.8607 954.263 84.8607C944.023 84.8607 934.938 86.5771 927.008 90.0099C919.077 93.3835 912.862 98.0887 908.364 104.126C903.866 110.163 901.617 117.206 901.617 125.255C901.617 134.961 904.635 142.981 910.672 149.314C916.768 155.647 926.179 160.263 938.904 163.163L961.986 168.224C968.497 169.703 973.32 171.893 976.457 174.793C979.653 177.693 981.251 181.274 981.251 185.535C981.251 190.803 978.647 195.271 973.439 198.941C968.23 202.551 961.276 204.356 952.576 204.356C944.586 204.356 938.105 202.67 933.133 199.296C928.162 195.863 924.877 190.803 923.279 184.115L897.622 188.021C899.812 200.095 905.73 209.417 915.378 215.986C925.025 222.497 937.483 225.752 952.753 225.752C963.762 225.752 973.439 223.947 981.784 220.337C990.188 216.726 996.728 211.755 1001.4 205.422C1006.14 199.03 1008.51 191.75 1008.51 183.582C1008.51 173.935 1005.43 166.093 999.273 160.056C993.118 154.019 983.767 149.551 971.219 146.651L949.557 141.679C942.041 139.903 936.596 137.625 933.222 134.843C929.849 132.061 928.162 128.392 928.162 123.834C928.162 118.567 930.677 114.276 935.708 110.962C940.739 107.588 947.012 105.901 954.529 105.901C960.033 105.901 964.62 106.789 968.29 108.565C971.959 110.34 974.859 112.619 976.99 115.401C979.18 118.182 980.778 121.112 981.784 124.19ZM1101.35 86.6363V107.943H1073.38V182.961C1073.38 188.11 1074.15 191.987 1075.69 194.591C1077.23 197.136 1079.21 198.882 1081.64 199.829C1084.12 200.717 1086.82 201.16 1089.72 201.16C1091.85 201.16 1093.71 201.012 1095.31 200.717C1096.91 200.421 1098.15 200.184 1099.04 200.006L1103.83 221.935C1102.29 222.526 1100.1 223.118 1097.26 223.71C1094.42 224.361 1090.87 224.716 1086.61 224.776C1079.63 224.894 1073.11 223.651 1067.08 221.047C1061.04 218.443 1056.16 214.418 1052.43 208.973C1048.7 203.528 1046.84 196.692 1046.84 188.465V107.943H1026.86V86.6363H1046.84V53.9659H1073.38V86.6363H1101.35ZM1136.66 273.16C1139.91 273.811 1143.52 274.136 1147.49 274.136C1154.83 274.136 1161.28 272.893 1166.84 270.408C1172.41 267.922 1177.2 264.193 1181.22 259.222C1185.25 254.309 1188.56 248.302 1191.17 241.2L1247.36 86.6363H1218.87L1184.33 192.46H1182.91L1148.38 86.6363H1119.97L1169.86 224.776L1166.58 233.831C1164.33 239.868 1161.72 244.218 1158.76 246.881C1155.86 249.545 1152.52 250.965 1148.73 251.143C1144.94 251.32 1140.62 250.758 1135.77 249.456L1129.38 271.207C1130.98 271.917 1133.4 272.568 1136.66 273.16ZM595.975 526V344.182H660.783C674.87 344.182 686.559 346.608 695.851 351.462C705.202 356.315 712.186 363.032 716.802 371.614C721.419 380.137 723.727 389.991 723.727 401.177C723.727 412.304 721.389 422.1 716.714 430.563C712.097 438.968 705.113 445.508 695.762 450.183C694.059 451.04 692.276 451.818 690.412 452.518L730.652 526H699.402L662.462 457.184C661.877 457.193 661.288 457.197 660.695 457.197H623.408V526H595.975ZM658.209 433.582H623.408V367.708H657.854C666.909 367.708 674.218 369.069 679.782 371.792C685.405 374.455 689.518 378.302 692.122 383.333C694.785 388.364 696.117 394.312 696.117 401.177C696.117 407.984 694.815 413.814 692.211 418.667C689.607 423.52 685.493 427.219 679.871 429.764C674.307 432.309 667.087 433.582 658.209 433.582ZM777.238 519.963C786.767 525.822 797.924 528.752 810.708 528.752C823.492 528.752 834.648 525.822 844.177 519.963C853.706 514.104 861.104 505.906 866.372 495.371C871.639 484.836 874.273 472.526 874.273 458.44C874.273 444.294 871.639 431.924 866.372 421.33C861.104 410.736 853.706 402.509 844.177 396.65C834.648 390.79 823.492 387.861 810.708 387.861C797.924 387.861 786.767 390.79 777.238 396.65C767.71 402.509 760.311 410.736 755.044 421.33C749.776 431.924 747.143 444.294 747.143 458.44C747.143 472.526 749.776 484.836 755.044 495.371C760.311 505.906 767.71 514.104 777.238 519.963ZM831.393 499.899C825.948 504.279 819.083 506.469 810.797 506.469C802.451 506.469 795.527 504.279 790.023 499.899C784.577 495.519 780.523 489.69 777.86 482.41C775.256 475.13 773.954 467.11 773.954 458.351C773.954 449.651 775.256 441.66 777.86 434.381C780.523 427.042 784.577 421.153 790.023 416.714C795.527 412.275 802.451 410.055 810.797 410.055C819.083 410.055 825.948 412.275 831.393 416.714C836.838 421.153 840.863 427.042 843.467 434.381C846.13 441.66 847.462 449.651 847.462 458.351C847.462 467.11 846.13 475.13 843.467 482.41C840.863 489.69 836.838 495.519 831.393 499.899ZM943.587 529.018C934.946 529.018 927.133 527.42 920.149 524.224C913.166 520.969 907.632 516.264 903.548 510.109C899.523 503.953 897.511 496.407 897.511 487.47C897.511 479.776 898.991 473.443 901.95 468.472C904.909 463.5 908.904 459.564 913.935 456.664C918.966 453.764 924.588 451.574 930.803 450.094C937.017 448.615 943.35 447.49 949.801 446.721C957.969 445.774 964.598 445.004 969.688 444.413C974.778 443.762 978.477 442.726 980.785 441.305C983.093 439.885 984.247 437.577 984.247 434.381V433.759C984.247 426.006 982.058 419.999 977.678 415.737C973.357 411.476 966.906 409.345 958.324 409.345C949.387 409.345 942.344 411.328 937.195 415.293C932.105 419.2 928.583 423.55 926.63 428.344L901.684 422.662C904.643 414.376 908.963 407.688 914.645 402.598C920.386 397.449 926.985 393.72 934.443 391.412C941.9 389.044 949.742 387.861 957.969 387.861C963.414 387.861 969.185 388.512 975.281 389.814C981.436 391.057 987.177 393.365 992.504 396.739C997.89 400.112 1002.3 404.936 1005.73 411.209C1009.16 417.424 1010.88 425.503 1010.88 435.446V526H984.958V507.356H983.892C982.176 510.789 979.601 514.163 976.169 517.477C972.736 520.792 968.327 523.544 962.941 525.734C957.555 527.923 951.104 529.018 943.587 529.018ZM949.358 507.712C956.697 507.712 962.97 506.262 968.179 503.361C973.446 500.461 977.441 496.673 980.164 491.998C982.945 487.263 984.336 482.203 984.336 476.817V459.239C983.389 460.186 981.555 461.073 978.832 461.902C976.169 462.671 973.121 463.352 969.688 463.944C966.255 464.477 962.911 464.98 959.656 465.453C956.401 465.867 953.678 466.222 951.488 466.518C946.339 467.169 941.634 468.264 937.372 469.803C933.17 471.342 929.797 473.562 927.252 476.462C924.766 479.303 923.523 483.09 923.523 487.825C923.523 494.395 925.95 499.366 930.803 502.74C935.656 506.054 941.841 507.712 949.358 507.712ZM1067.81 520.229C1076.45 525.852 1086.28 528.663 1097.28 528.663C1105.57 528.663 1112.32 527.272 1117.53 524.491C1122.73 521.709 1126.82 518.454 1129.78 514.725C1132.8 510.996 1135.1 507.682 1136.7 504.782H1138.92V526H1164.84V344.182H1138.3V411.742H1136.7C1135.1 408.901 1132.86 405.616 1129.96 401.888C1127.11 398.159 1123.09 394.904 1117.88 392.122C1112.73 389.281 1105.93 387.861 1097.46 387.861C1086.51 387.861 1076.72 390.642 1068.08 396.206C1059.44 401.769 1052.63 409.789 1047.66 420.265C1042.74 430.741 1040.29 443.347 1040.29 458.084C1040.29 472.822 1042.72 485.458 1047.57 495.993C1052.48 506.469 1059.23 514.548 1067.81 520.229ZM1122.5 499.988C1117.23 504.013 1110.78 506.025 1103.14 506.025C1095.27 506.025 1088.64 503.924 1083.26 499.722C1077.93 495.46 1073.91 489.69 1071.18 482.41C1068.46 475.13 1067.1 466.933 1067.1 457.818C1067.1 448.822 1068.43 440.743 1071.09 433.582C1073.82 426.42 1077.84 420.768 1083.17 416.625C1088.5 412.482 1095.15 410.41 1103.14 410.41C1110.9 410.41 1117.41 412.393 1122.68 416.359C1127.94 420.324 1131.94 425.858 1134.66 432.96C1137.38 440.062 1138.74 448.348 1138.74 457.818C1138.74 467.406 1137.35 475.811 1134.57 483.031C1131.85 490.252 1127.82 495.904 1122.5 499.988ZM1304.92 422.928L1280.86 427.19C1279.85 424.112 1278.25 421.182 1276.06 418.401C1273.93 415.619 1271.03 413.34 1267.36 411.565C1263.69 409.789 1259.11 408.901 1253.6 408.901C1246.08 408.901 1239.81 410.588 1234.78 413.962C1229.75 417.276 1227.23 421.567 1227.23 426.834C1227.23 431.392 1228.92 435.061 1232.29 437.843C1235.67 440.625 1241.11 442.903 1248.63 444.679L1270.29 449.651C1282.84 452.551 1292.19 457.019 1298.35 463.056C1304.5 469.093 1307.58 476.935 1307.58 486.582C1307.58 494.75 1305.21 502.03 1300.48 508.422C1295.8 514.755 1289.26 519.726 1280.86 523.337C1272.51 526.947 1262.83 528.752 1251.83 528.752C1236.56 528.752 1224.1 525.497 1214.45 518.986C1204.8 512.417 1198.88 503.095 1196.69 491.021L1222.35 487.115C1223.95 493.803 1227.23 498.863 1232.21 502.296C1237.18 505.67 1243.66 507.356 1251.65 507.356C1260.35 507.356 1267.3 505.551 1272.51 501.941C1277.72 498.272 1280.32 493.803 1280.32 488.535C1280.32 484.274 1278.73 480.693 1275.53 477.793C1272.39 474.893 1267.57 472.703 1261.06 471.224L1237.98 466.163C1225.25 463.263 1215.84 458.647 1209.74 452.314C1203.71 445.981 1200.69 437.961 1200.69 428.255C1200.69 420.206 1202.94 413.163 1207.44 407.126C1211.93 401.089 1218.15 396.383 1226.08 393.01C1234.01 389.577 1243.1 387.861 1253.33 387.861C1268.07 387.861 1279.67 391.057 1288.14 397.449C1296.6 403.782 1302.19 412.275 1304.92 422.928Z" fill="#EE6C4D"/>
</svg>
